<svg role="img" viewBox="0 0 24 24" width="48" height="48" xmlns="http://www.w3.org/2000/svg">
  <title>LinkedIn</title>
  <path fill="#232139" fill-rule="evenodd" d="
	M2.6667 24H21.3333C22.8061 24 24 22.8061 24 21.3333V2.6667C24 1.1939 22.8061 0 21.3333 0H2.6667C1.1939 0 0 1.1939 0 2.6667V21.3333C0 22.8061 1.1939 24 2.6667 24Z

	M20.6667 20.6667H17.1052V14.6007C17.1052 12.9376 16.4733 12.0082 15.1569 12.0082C13.7249 12.0082 12.9767 12.9754 12.9767 14.6007V20.6667H9.5444V9.1111H12.9767V10.6676C12.9767 10.6676 14.0087 8.7581 16.4609 8.7581C18.9119 8.7581 20.6667 10.2548 20.6667 13.3504V20.6667Z

	M5.4498 7.598C4.2807 7.598 3.3333 6.6432 3.3333 5.4657C3.3333 4.2881 4.2807 3.3333 5.4498 3.3333C6.6189 3.3333 7.5657 4.2881 7.5657 5.4657C7.5657 6.6432 6.6189 7.598 5.4498 7.598Z

	M3.6775 20.6667H7.2565V9.1111H3.6775V20.6667Z
  "/>
</svg>
