<svg viewBox="0 0 64 64" height="64" width="64" xmlns="http://www.w3.org/2000/svg">
	<title>Canoe Do It</title>
	<path d="M14.7638 39.215C18.6467 35.3321 33.4353 34.6047 33.4353 34.6047C33.4353 34.6047 32.7079 49.3933 28.825 53.2762L19.4536 59.8104C18.2612 60.6418 16.6443 60.4987 15.6164 59.4708L8.5692 52.4236C7.54133 51.3957 7.39825 49.7788 8.22964 48.5864L14.7638 39.215Z" fill="#5f3c3c" />
	<path d="M57.1576 8.26379C57.5227 7.89027 58.1226 7.88687 58.4919 8.25622L59.7838 9.54807C60.1531 9.91743 60.1497 10.5173 59.7762 10.8824L27.8899 42.0535C27.5223 42.4129 26.934 42.4095 26.5705 42.046L25.994 41.4695C25.6305 41.106 25.6271 40.5177 25.9865 40.1501L57.1576 8.26379Z" fill="#5f3c3c"/>
	<path d="M30.962 27.7355L28.0788 25.0219C27.352 26.0395 26.0679 26.7663 24.4446 26.7663C21.5857 26.7663 19.5748 24.6343 19.5748 21.5089C19.5748 18.4804 21.6342 16.2514 24.5173 16.2514C25.8256 16.2514 27.2066 16.7602 27.9819 17.8262L30.7924 15.0158C29.3629 13.3683 26.7705 12.4961 24.372 12.4961C19.1387 12.4961 15.0684 16.0091 15.0684 21.5089C15.0684 26.8875 19.0176 30.5701 24.2993 30.5701C27.1824 30.5701 29.4598 29.4799 30.962 27.7355Z" fill="#232139"/>
	<path d="M55.6239 45.0973C55.6239 38.6043 50.6813 36.5691 45.8115 36.5691L39.6092 36.5691L39.6092 53.7225L46.0054 53.7225C50.7298 53.7225 55.6239 51.1301 55.6239 45.0973ZM51.3113 45.0973C51.3113 48.9254 48.5735 50.1368 45.6177 50.1368L43.6552 50.1368L43.6552 40.1064L45.7146 40.1064C48.5735 40.1064 51.3113 41.2451 51.3113 45.0973Z" fill="#232139"/>
</svg>
